<?xml version="1.0" encoding="UTF-8"?>
<svg xmlns="http://www.w3.org/2000/svg" xmlns:xlink="http://www.w3.org/1999/xlink" width="64pt" height="64pt" viewBox="0 0 64 64" version="1.1">
<g id="surface2538720">
<path style=" stroke:none;fill-rule:nonzero;fill:rgb(255, 255, 255);fill-opacity:1;" d="M 26.175781 7.199219 C 21.3125 7.199219 16.449219 9.050781 12.75 12.75 C 5.351562 20.148438 5.351562 32.199219 12.75 39.601562 C 16.449219 43.300781 21.300781 45.152344 26.199219 45.152344 C 31.101562 45.152344 35.949219 43.300781 39.652344 39.601562 C 47 32.199219 47 20.148438 39.601562 12.75 C 35.898438 9.050781 31.039062 7.199219 26.175781 7.199219 Z M 26.148438 10.148438 C 30.25 10.148438 34.351562 11.699219 37.449219 14.847656 C 43.699219 21.097656 43.699219 31.25 37.5 37.5 C 31.25 43.75 21.097656 43.75 14.851562 37.5 C 8.601562 31.25 8.601562 21.097656 14.851562 14.847656 C 17.949219 11.75 22.050781 10.148438 26.152344 10.148438 Z M 26.148438 13.148438 C 22.699219 13.148438 19.449219 14.5 17 17 C 14.648438 19.351562 13.351562 22.398438 13.199219 25.699219 C 13.148438 26.550781 13.800781 27.199219 14.652344 27.25 L 14.699219 27.25 C 15.5 27.25 16.148438 26.601562 16.199219 25.800781 C 16.300781 23.25 17.351562 20.898438 19.101562 19.101562 C 21 17.199219 23.5 16.152344 26.152344 16.152344 C 27 16.152344 27.652344 15.5 27.652344 14.652344 C 27.652344 13.800781 27 13.152344 26.152344 13.152344 Z M 17.5 32 C 16.671875 32 16 32.671875 16 33.5 C 16 34.328125 16.671875 35 17.5 35 C 18.328125 35 19 34.328125 19 33.5 C 19 32.671875 18.328125 32 17.5 32 Z M 41.683594 40.25 C 41.300781 40.25 40.925781 40.398438 40.652344 40.699219 C 40.050781 41.300781 40.050781 42.25 40.652344 42.800781 L 41.902344 44.050781 C 41.601562 44.648438 41.449219 45.300781 41.449219 46 C 41.449219 47.199219 41.898438 48.351562 42.75 49.199219 L 49.152344 55.5 C 50.050781 56.398438 51.199219 56.851562 52.351562 56.851562 C 53.5 56.851562 54.648438 56.398438 55.550781 55.550781 C 57.300781 53.800781 57.300781 50.949219 55.550781 49.199219 L 49.148438 42.800781 C 48.300781 41.949219 47.148438 41.5 45.949219 41.5 C 45.25 41.5 44.601562 41.648438 44 41.949219 L 42.75 40.699219 C 42.449219 40.398438 42.0625 40.25 41.683594 40.25 Z M 45.949219 44.449219 C 46.351562 44.449219 46.75 44.601562 47 44.902344 L 53.351562 51.25 C 53.949219 51.851562 53.949219 52.800781 53.351562 53.351562 C 52.75 53.949219 51.800781 53.949219 51.25 53.351562 L 44.902344 47.050781 C 44.601562 46.75 44.449219 46.351562 44.449219 45.949219 C 44.449219 45.550781 44.601562 45.148438 44.902344 44.902344 C 45.199219 44.601562 45.550781 44.449219 45.949219 44.449219 Z M 45.949219 44.449219 "/>
</g>
</svg>
